<mxfile host="app.diagrams.net" modified="2023-09-09T01:52:54.953Z" agent="Mozilla/5.0 (Windows NT 10.0; Win64; x64) AppleWebKit/537.36 (KHTML, like Gecko) Chrome/116.0.0.0 Safari/537.36" etag="iOJYwCNAXTJp__PYVO3C" version="21.7.4" type="device">
  <diagram name="페이지-1" id="V8czD0fd6J0GJFK_vFva">
    <mxGraphModel dx="842" dy="553" grid="1" gridSize="10" guides="1" tooltips="1" connect="1" arrows="1" fold="1" page="1" pageScale="1" pageWidth="827" pageHeight="1169" math="0" shadow="0">
      <root>
        <mxCell id="0" />
        <mxCell id="1" parent="0" />
      </root>
    </mxGraphModel>
  </diagram>
</mxfile>
